# xmcd
#
# Track frame offsets:
#	182
#	20647
#	33120
#	48805
#	64760
#	81005
#	93310
#	108692
#	123532
#	139432
#	154320
#	170182
#	187280
#	206110
#
# Disc length: 2922 seconds
#
# Revision: 2
# Processed by: cddbd v1.5PL3 Copyright (c) Steve Scherf et al.
# Submitted via: dBpowerAMP V4.0
#
DISCID=d00b680e
DTITLE=Tanya Tucker - Soon
DYEAR=1993
DGENRE=Country
TTITLE0=You Just Watch Me
TTITLE1=I Love You Anyway
TTITLE2=Soon
TTITLE3=Black Water Bayou
TTITLE4=Let the Good Times Roll
TTITLE5=Strong Enough To Bend
TTITLE6=Hangin` In
TTITLE7=As Long as There`s A Heartbeat
TTITLE8=Oh What It Did To Me
TTITLE9=Sneaky Moon
TTITLE10=Come On Honey
TTITLE11=We Don`t Have To Do This
TTITLE12=Silence Is King
TTITLE13=A Blue Guitar
EXTD=
EXTT0=
EXTT1=
EXTT2=
EXTT3=
EXTT4=
EXTT5=
EXTT6=
EXTT7=
EXTT8=
EXTT9=
EXTT10=
EXTT11=
EXTT12=
EXTT13=
PLAYORDER=
